/* XPM */
static char *d24ca72f07024c6a90c98706c756e33cWKfLo6bGbRTPdO2R[] = {
/* columns rows colors chars-per-pixel */
"64 64 94 2 ",
"   c #00040F",
".  c #000611",
"X  c #010B16",
"o  c #040E19",
"O  c #07111C",
"+  c #09131E",
"@  c #0C1621",
"#  c #0E1823",
"$  c #121C26",
"%  c #141E29",
"&  c #162128",
"*  c #1B252E",
"=  c #1E292F",
"-  c #1C2631",
";  c #1F2933",
":  c #212B34",
">  c #242D3A",
",  c #263235",
"<  c #293536",
"1  c #27313B",
"2  c #2B363B",
"3  c #2D393A",
"4  c #313D3D",
"5  c #34403F",
"6  c #2B3541",
"7  c #2F3844",
"8  c #323D42",
"9  c #343E4B",
"0  c #364145",
"q  c #384247",
"w  c #37404C",
"e  c #3A444A",
"r  c #3E484E",
"t  c #3B4552",
"y  c #3F4853",
"u  c #404A4F",
"i  c #404951",
"p  c #404A52",
"a  c #414A53",
"s  c #434D52",
"d  c #424C53",
"f  c #404957",
"g  c #444E57",
"h  c #414A58",
"j  c #424B59",
"k  c #464F59",
"l  c #444D5B",
"z  c #465055",
"x  c #46505A",
"c  c #47505A",
"v  c #47515B",
"b  c #47505C",
"n  c #47505F",
"m  c #49535E",
"M  c #4A535E",
"N  c #4A545F",
"B  c #4B5460",
"V  c #4C5662",
"C  c #4D5763",
"Z  c #4E5764",
"A  c #4E5765",
"S  c #4F5865",
"D  c #4F5866",
"F  c #4F5867",
"G  c #4F5868",
"H  c #505966",
"J  c #505967",
"K  c #505968",
"L  c #535C6A",
"P  c #535C6B",
"I  c #545D6D",
"U  c #565F6F",
"Y  c #575F6F",
"T  c #57606F",
"R  c #58616F",
"E  c #576070",
"W  c #586070",
"Q  c #586171",
"!  c #5A6372",
"~  c #5A6273",
"^  c #5A6373",
"/  c #5B6473",
"(  c #5A6374",
")  c #5B6475",
"_  c #5D6575",
"`  c #5D6676",
"'  c #5F6878",
"]  c #606979",
"[  c #60697A",
"{  c #636B7B",
"}  c #636B7C",
"|  c #636C7C",
" . c #646D7D",
".. c #666F7F",
/* pixels */
"4 4 4 4 4 4 4 4 4 4 4 4 4 4 4 4 4 4 4 4 4 4 4 8 [ R  .w X @ + 8 p u e p e u u e e p r r r r p r r r r r r r r r r r r r r r r u ",
"& & & & & & & & & & & & & & & & % % & & & & & & > > 1 * + @ + * * * * * - * * - * * * * * * * * * * * * * * * * * * * * * * * * ",
"o + + + + O O + + + + O + o + + o @ + + + + + O o o o + @ + @ + o + o + o + + + + o + o + + o + + + + + + O + + + + O O O O + o ",
"@ + @ @ @ + + @ @ + + @ @ @ @ @ @ @ + + + @ + + + @ @ + @ + + @ @ @ @ @ @ + @ + @ @ @ @ + @ + + + + + + + @ + @ + @ + @ @ @ @ @ ",
"@ @ @ @ @ @ @ @ @ @ @ @ @ @ @ + @ @ @ @ @ + @ @ @ @ @ @ @ @ @ @ + + @ @ @ + @ @ @ + @ @ @ @ @ @ + @ @ + @ + @ + @ @ + @ @ @ + @ ",
"+ @ o O U U P P E K ( * X @ @ @ + X 8 ) P U P U P U P P U U ` % o @ @ @ @ @ + @ @ @ o @ W P U P P U W @ + @ + @ + o : 4 0 e + + ",
"@ @ % * P U P U U K W > % @ + + $ % 9 / P U U K U P U P P P W & + @ @ @ @ @ @ @ @ @ % : W P P U U P W : & + + + $ @ , 4 0 e $ $ ",
"@ o K [ U U Y W W Y U ) [ # + o : { W P U R R Y P U P U P R [ & + o @ o o o o + + o W ` U R R U P P U / U + + + * 4 0 e e e p 8 ",
"@ O y B B B B B B N N M M # + O > ( G U C M A C U E U G P j t % @ * * - * * * * * * M M C M M K P U K U A + @ o = 0 8 e e e e 8 ",
"@ + 8 e 0 0 0 0 0 0 0 e e # + . - ` G ) p 8 8 e U K U U ..> . o o y u p u e u u u u 0 9 0 0 8 k W P U U K + @ + : u e e e e e e ",
"@ + * : e e e 0 e e e > - + $ w i W C k r e e e U A ( j > * + : > 0 0 e e e q e e 0 e e e e e s v J U U A + @ o = u 0 e e e e 0 ",
"@ @ O O e r r r r e s $ o + % [ R U k 8 e e e e W K ( 7 . @ @ 8 u e e e e e e e e e e e e e e e 8 C Y U A + @ + : e e e e e e e ",
"@ + @ # % % $ % $ % & # @ + $ T J W v 0 e e e e E P W 9 o # @ 8 e e e e e e e e e e e e e e e e 0 C Y U A + @ o : p e e e e e 8 ",
"@ + @ + + + + O + + O + + + $ W U ( v 0 e e e e U P ` 9 o @ O 8 e e q e e e e e e e e e e e e e 0 S U U J + @ o : e q e e e e 8 ",
"@ @ @ + O O + O + + X j T K K e e e e e e e e e e p T K W > o @ @ e e e e e e e e e e e e e e e 8 C U U A + @ o : e 8 e e e e 8 ",
"@ + @ @ % % % % % & # B W W K 0 e e e e e e e e 8 a W K ` > o @ @ e e e e e e e e e e e e e e e q C U U J + @ O : p e e e e e 8 ",
"+ @ O O ( ( R W R / / T T E P 0 e e e e e e e e 0 p ) P ` : . @ # e r q e e e e e e e e e e e e 0 C U Y J + + + : e e e e 0 e 8 ",
"# + - > G P P U E G G C B C B 0 e e e e e e e e 0 r C S W 9 ; $ + 2 3 e e e e e e e e e e e e e 0 J U U J + @ o : p e e e e e 8 ",
"# O P | T T T T W E W r 0 0 0 e e e e e e e e e e e 8 g W E { % O O # r e e e e e e e e e r e e q N U U J + + O : u e e e e e e ",
"+ O e x x x x x x x v r e e e e e e e e e e e e e e 0 x W K T % O + % r e e e e e e e e e e e e 0 H R P J + @ o : e 0 e e e e e ",
"@ O 8 e 0 0 0 0 q q q e e e e e e e e e e e e e e e 8 k U U } & O O $ e e e e e e e e e e e e e 0 H R U J + @ + : e 0 e e e e e ",
"@ O 8 r e e e e e e e e q e e e e e e e e e e e e r S S W 8 - # @ 2 8 e e e e e e e e e e e e e 8 C R P A O + O : u 0 e e e e e ",
"@ + 8 e e e e e e e e e e e e e e e e e e e e e w p W P ' > X + + e e e e e e e e e e e e e e e q N R U J + + O : u w e e e e e ",
"@ O 8 e e e e e e e e e e e e e e e e e e e e e 0 y ( P ` > o + @ e e e q e e e e r e e e e e e 0 J U U A + @ O : e e e e e e e ",
"@ + 8 e e e 0 e e e e 0 e q e e e e e e e e e e e y J S T : o $ $ e e e e e q e q e e q e e e e 8 C U U S + + O : p e e e e e e ",
"@ O 8 e e 0 e e e e e e q 0 e e e e e e e 0 P E ) l X + o + O 8 r e e e e e e e e q e e e e e e q C U U S + @ o : e 0 e e e e e ",
"@ O 8 0 0 0 0 0 0 0 0 0 0 0 0 0 0 0 0 0 r a K G E a O $ & $ % 4 e 0 0 0 0 0 8 q 0 0 0 q 0 0 0 0 8 C Y U S O @ + : e e e e e e e ",
"@ + < 4 3 3 3 3 3 3 3 3 3 3 3 3 3 3 3 < C W ) ) ' M X = 5 3 4 3 < 3 3 3 3 3 3 3 3 3 3 3 3 3 3 3 < N W ( E + + O > s e e e e e e ",
"@ @ * = 3 3 3 3 3 3 3 3 3 3 3 3 3 3 3 < x T w 8 9 6 o * 3 3 3 3 3 3 3 3 3 3 3 3 3 3 3 3 3 3 3 4 < c R 9 8 + @ + % > 8 e 0 0 e 0 ",
"@ @ O O 4 4 4 4 4 3 4 4 4 4 4 4 4 3 4 3 S  .+ X X O O * 0 3 4 3 5 3 5 5 3 5 5 3 4 4 4 4 4 4 4 4 3 J  .+ X @ @ @ + X 2 s u u p e ",
"@ + @ @ & & & & & & & & & & & & & & & & - 1 # # # @ @ $ & & & & & & & & & & & & & & & & $ & & & $ : > $ @ + @ + + + $ * * * * * ",
"+ @ @ + + + O + + + + O + O + + + O + + O O + + @ O @ O @ O O @ O O O O O + O + + O O + + + + + + o o + @ @ @ @ + @ + O O O O O ",
"+ + + + @ + @ @ + @ + @ + + + @ @ + @ + @ + @ + @ @ O @ @ @ @ @ + + + + + + + + + + + + + + + + + + + + + + + + + + + + + + + + ",
"$ @ @ @ # @ @ + $ @ @ + $ # @ @ # @ @ @ @ @ @ @ @ @ @ @ @ @ @ @ + # @ @ # # # # + # $ # # # # # # # # $ @ @ # # # # + # $ # # # ",
"3 4 3 3 4 3 4 3 3 4 4 3 3 3 3 3 3 4 3 4 3 4 3 3 o @ @ O @ O @ o + R U R P U U R P U T T P T P P U T P U U P P U P R U R U R P T ",
"3 3 3 4 3 3 3 3 3 3 3 3 3 4 3 4 3 3 3 3 3 3 3 3 # # @ @ @ @ @ & = P P P P U W K U P P P P P P T P P P P U K U U P P P P P P P P ",
"3 3 3 3 3 3 3 3 3 3 3 3 3 3 3 3 3 3 3 3 3 4 3 3 8 , o @ @ @ O S [ R R W T P T T U P W ` ` W T W R T W E E E U U Y U U E R W E W ",
"4 4 8 4 4 8 4 8 4 4 8 4 4 8 4 8 4 8 4 4 , = 3 3 3 < & $ @ @ O y N N N l S P P P P U w w w t N M M N M M M B M M B M C B M M M M ",
"e e e e e e e e e e e e e e e e e w e z & X 3 5 3 3 0 = O @ O 8 0 0 0 0 g ( T T U U O X X $ s 0 0 0 0 e 0 0 0 e 8 q 0 0 0 e 0 0 ",
"e e e e e e e e e e e e e e e e e e 3 - $ + * * 3 3 4 = O @ O 8 e e e e y x p s J T $ # @ $ * 3 e e e e e e e e e e e e e e e e ",
"e e e e e e e e e e e e e e e e e r : X + + X o 3 3 3 = + # + 8 r e e e e 0 q 0 J R O o + + X : u 0 e e e e e e e e e e e e e e ",
"e e e e e e e e e e e e e e e e e r : + @ + a M 3 3 4 - + + O 8 e e e e e e e q J U M y O $ O > u e e e e e e e e e e e e e e 8 ",
"e e e e e e e e e e e e e e e e e r : o + O G ( 3 3 4 = O + O 8 e e e e e e e 0 J W W J O + O > e e e e e 0 e e e e e e e e e 8 ",
"e e e e e e e e e e e e e e 0 + @ @ @ O y E E G 3 3 4 = O # O 8 e e e e e e e e e e e e U K W 6 o $ + e e e e e e e e e e e @ @ ",
"e e e r e e e e e e e e e e 8 o @ @ @ o j ` U S 3 3 3 = O # + 8 r q e e e e q e e e e e W K / 7 o @ + 8 8 8 8 e e e e e w e @ $ ",
"e e e e e e e e e e q e p e e + @ @ @ . y ( E G 3 3 4 = O + + 8 e e e e e e e e e e e r W T [ 6 . O o o + o % g e e e e e e X % ",
"e e e e e e e e e e e 6 2 2 > @ @ @ - ; k T P G 3 3 7 - O + O 8 r e e e e r e e e e e e S B J w : > > $ @ @ % 2 3 w e e 6 < : 6 ",
"e e e e e e e e e e t $ o o o X o . 8  .E U W U 3 3 8 = + # + 8 e q e e e e e e e e e 0 0 0 8 N [ W [ @ X o o X : k e s @ o ` ( ",
"e e e e e e e e e e e * @ @ $ 9 0 7 y T G E v z 3 3 3 ; o + + 8 e e e e e e e e e e e e e e e l E K K 9 9 9 2 @ % ; ; : % # P G ",
"e e e e e e e e e e s $ X X # [ / ) ) E E E 0 0 3 3 0 = # + O 8 e e e e e e e e e e e e e e 0 v W E W ` W ' B . @ o o o o o W G ",
"e e e e e e e e e 1 $ w l j k E S E N t y y e e 3 3 3 ; O + + 8 r e e e e e e e e e e e e e e r p p a K G U A k 6 o # + t k a p ",
"e e e e e e e e u -   M ` W W U W W x 0 e e e e 3 3 5 = # + O 8 e e e e e e e e e e e e e e e q 0 e 0 K E P E } 9 X # o G ` e 0 ",
"e e e e e e e e 0 x K U U U K e e e e e e e e e 3 3 4 = O # + 8 e e e e e e e e e e e e e e q e e e 0 P E K G ` 9 X # O 8 e e e ",
"e e e e e e e e 0 B W K K U J 0 e e e e e e e e 3 3 4 = O + + 8 e e e e e e e e e e e e e e e e e e e K U Y G E 8 o @ + 8 e e e ",
"e e e e e e e e 0 C ( E W e e e e e e e e e 3 3 3 3 3 = O $ O 8 e e e e e e e e e e e e e e e e e e e e e [ k X @ O + o 8 e e e ",
"q 0 0 0 0 0 0 0 8 p B M B 0 0 0 0 0 0 0 0 0 3 3 3 3 4 = O + O 3 q 0 0 0 0 0 0 0 0 0 0 0 0 0 q 0 0 0 0 0 8 c 9 o $ % & $ 8 0 q 9 ",
"3 3 3 3 3 3 3 3 3 3 < < < 3 3 3 3 3 3 3 3 < 3 3 3 3 4 ; O @ O 3 5 < < 3 3 3 3 3 3 3 3 3 3 3 3 3 3 3 3 4 3 X O + * 0 3 5 3 3 3 3 ",
"3 3 3 3 3 3 3 3 3 3 3 3 3 3 3 3 3 3 3 3 3 3 3 3 3 < : & O @ O * = 3 3 3 3 3 3 3 3 3 3 3 3 3 3 3 3 3 3 = = + @ + * 3 < 3 3 3 3 3 ",
"3 4 4 4 3 4 4 4 4 4 4 4 4 4 4 4 3 3 0 3 5 3 5 3 5 < o + @ @ @ O + 5 3 5 3 5 5 3 4 4 4 4 3 3 5 3 4 4 5 + + + + + ; 4 4 4 4 4 3 4 ",
"& & & & & & & & % & & & & & $ & & & & & & & & & & # @ @ + @ + @ @ & & & & & & & & & & & & & & & & & & @ + + # + + * & & & & & & ",
"O + + + + + O + + + + + + + + + O + O O + + + + + + @ @ @ @ @ @ @ O @ O O O + O + + O O + + + O + + + + + + + + + + + + + + + O ",
"+ + + + + + + + + + + + + + + + @ @ @ @ + + + @ + + + + + @ O + O @ + @ + + @ @ + + + @ + + + + + + + + @ + # + + + + + + + + + ",
"+ + # + % # # @ # # @ # $ @ # # @ @ # @ # # @ # @ + @ $ @ @ # @ @ $ @ @ # + # # # # # # # # # # # # @ # + + $ + @ + # # # # # # ",
"# + O + K U U U E E U U U U U R T T T T T T T R W T T U R U R U U E R U R U T T T P U U T T U T R U W # + + + + + X t / P T T T "
};
