/* XPM */
static char *e4bb277a96c2486ee979ffe0a9ddf194fzGca2PH07ZKuzpk[] = {
/* columns rows colors chars-per-pixel */
"64 64 189 2 ",
"   c #3E1100",
".  c #460800",
"X  c #4F0A00",
"o  c #520200",
"O  c #5C0300",
"+  c #550E00",
"@  c #5C0C00",
"#  c #451300",
"$  c #4F1500",
"%  c #541400",
"&  c #5C1200",
"*  c #5C1900",
"=  c #610D00",
"-  c #690F00",
";  c #7A0000",
":  c #641300",
">  c #6B1400",
",  c #631900",
"<  c #6D1B00",
"1  c #731400",
"2  c #7C1300",
"3  c #741C00",
"4  c #7B1900",
"5  c #742100",
"6  c #7B2100",
"7  c #8C0200",
"8  c #8C0C00",
"9  c #960F00",
"0  c #990E00",
"q  c #831400",
"w  c #8C1200",
"e  c #851A00",
"r  c #8C1A00",
"t  c #921100",
"y  c #9C1100",
"u  c #941C00",
"i  c #9C1C00",
"p  c #A10D00",
"a  c #A90B00",
"s  c #A41400",
"d  c #A41E00",
"f  c #AB1E01",
"g  c #B51B00",
"h  c #BC1B00",
"j  c #802A00",
"k  c #942100",
"l  c #9B2200",
"z  c #883201",
"x  c #8E3A00",
"c  c #923B00",
"v  c #983E00",
"b  c #A22202",
"n  c #AC2000",
"m  c #A42508",
"M  c #B52300",
"N  c #BB2400",
"B  c #BC2900",
"V  c #A93500",
"C  c #C51F00",
"Z  c #CA1E00",
"A  c #D01E00",
"S  c #EE0200",
"D  c #EE0B00",
"F  c #EF1200",
"G  c #ED1D00",
"H  c #F01500",
"J  c #FC1300",
"K  c #F01C00",
"L  c #F81900",
"P  c #C42600",
"I  c #CB2400",
"U  c #C62901",
"Y  c #CC2901",
"T  c #D22300",
"R  c #DA2600",
"E  c #D12A00",
"W  c #DB2B00",
"Q  c #EE2300",
"!  c #E42D00",
"~  c #ED2D00",
"^  c #F12300",
"/  c #FC2400",
"(  c #F12E00",
")  c #FB2C00",
"_  c #ED3101",
"`  c #F23201",
"'  c #FC3200",
"]  c #F23B02",
"[  c #F73905",
"{  c #F23E0B",
"}  c #9A4200",
"|  c #A94E01",
" . c #B64100",
".. c #AB5200",
"X. c #B75A02",
"o. c #DD4E00",
"O. c #CF5E00",
"+. c #C95E19",
"@. c #DD5D17",
"#. c #F34301",
"$. c #F34C00",
"%. c #FB4C00",
"&. c #F34309",
"*. c #F34C0D",
"=. c #EC5800",
"-. c #F45500",
";. c #F55B00",
":. c #F44B12",
">. c #F55411",
",. c #F45B14",
"<. c #D26100",
"1. c #DF6500",
"2. c #C97D00",
"3. c #F66400",
"4. c #FB6300",
"5. c #F66C00",
"6. c #F86E08",
"7. c #F77400",
"8. c #F67D01",
"9. c #F87F01",
"0. c #F56217",
"q. c #F56418",
"w. c #F66D1C",
"e. c #F5721E",
"r. c #D77623",
"t. c #F66F20",
"y. c #F77621",
"u. c #F77C23",
"i. c #FB7A23",
"p. c #E78700",
"a. c #E68D00",
"s. c #F98300",
"d. c #F08D00",
"f. c #F88A00",
"g. c #F49300",
"h. c #F99500",
"j. c #FA9B00",
"k. c #F89806",
"l. c #F98E18",
"z. c #E89410",
"x. c #F99816",
"c. c #F6A305",
"v. c #FCA400",
"b. c #FDAB00",
"n. c #FCB300",
"m. c #FEBC00",
"M. c #FBAA13",
"N. c #FBB41F",
"B. c #CD882D",
"V. c #CD9332",
"C. c #DA9C34",
"Z. c #F68127",
"A. c #F88925",
"S. c #F68728",
"D. c #F98528",
"F. c #F88C2A",
"G. c #F9932E",
"H. c #F9982E",
"J. c #FA9C33",
"K. c #DAA739",
"L. c #F8AB27",
"P. c #FBAE2F",
"I. c #FBB222",
"U. c #FBB72E",
"Y. c #FCBA2F",
"T. c #FAA436",
"R. c #F9AA38",
"E. c #FBB633",
"W. c #FBBB33",
"Q. c #F4B43E",
"!. c #FAB43D",
"~. c #FAB83E",
"^. c #FFC100",
"/. c #FCC035",
"(. c #FCC13C",
"). c #F3B840",
"_. c #FCBD41",
"`. c #F4C646",
"'. c #FCC544",
"]. c #FCC645",
"[. c #FDC946",
"{. c #FDCC4B",
"}. c #FDD34B",
"|. c #FEDA4D",
" X c #FDCF51",
".X c #FED353",
"XX c #FEDF50",
"oX c #FFE452",
"OX c #FFE954",
/* pixels */
"[.'.'.'.'.'..X>.` ` ! > q 9 9 9 9 0 0 9 9 9 3 1 3 1 < 3 3 3 1 < 4 9 9 8 Z ~ ! ! ~ ( _ ` ` 5.v.j.j.h.f.( ( ( ~ ~ g 9 0 0 0 9 0 0 ",
"}.{.{.{.}.'.'.{.{.( Q ' Y & w 0 0 9 9 0 9 9 0 w < 3 3 3 3 3 3 3 3 < q p 2 : : : ) ' / -.b.j.j.j.b._ ^ ( ~ ' I 8 9 9 9 9 0 0 0 9 ",
"/.W.W.E.J._.'.'.'.,.:.' P : q 9 9 t 9 0 9 0 0 w 3 3 3 3 3 3 3 3 3 < 2 t 4 1 1 1 Y E I o.v.h.j.s.s.` ( ~ ~ ' Z 9 0 0 0 0 y 0 y 9 ",
"j.h.j.5.S G.OX'.'.oX'.J C + : : 8 p 0 9 9 9 0 w < 3 3 3 3 3 3 3 3 3 3 3 3 3 3 3 & : X c b.g.v.#.K ` ( ' ) ' T 8 0 0 9 0 9 0 9 9 ",
"j.k.v.7.G q.S.).'.'._.y.@.f u : q q 9 9 0 9 0 t q 4 3 3 3 3 3 3 3 3 3 3 3 3 3 3 > < = } v.g.v.$.~ ~ ~ N N B f 9 9 y 0 9 9 y 9 9 ",
"j.h.v.5.) ( D !.oX'.'.OXT.J f + > , 9 0 9 9 9 0 p 2 < 3 3 3 3 3 3 3 3 3 3 3 3 3 > < @ } b.h.v.%.) ' ` , , , 2 0 9 0 9 9 9 0 0 9 ",
"j.h.v.1.a W ` ,.q._.'.[.!.J.@.Z r > 2 2 9 0 0 9 9 t w 4 3 3 3 3 3 3 3 3 3 3 3 3 : > @ } v.h.v. .i l l 3 3 3 e 0 9 9 0 y y 0 y 9 ",
"v.h.b.<.; R ' ) / {.}.'.'.OXi./ u @ > > 0 0 9 0 t 0 p 4 < 3 < 3 3 3 3 3 3 3 3 3 , < @ } v.g.v.x = < < 3 3 3 q 0 9 y 9 9 9 9 0 9 ",
"j.h.b.<.7 s s s s &.>.}._.}.u.K ! ! 4 > 1 2 0 0 0 9 0 t t t w 3 3 3 3 3 3 3 3 3 > > @ } b.g.v.v > 6 3 3 3 3 q 0 9 9 y 9 0 y 9 9 ",
"j.h.v.O.7 9 9 9 9 Q ] {.'.}.u.^ ` ' 2 : : 1 0 9 0 0 9 0 0 0 9 3 3 3 3 3 3 3 3 3 , > @ } v.g.v.v : 3 3 3 3 3 q 0 9 9 0 0 9 0 9 0 ",
"< 3 3 3 3 w 0 0 9 9 m }.'.XXy.H _ ' 1 & > 1 0 9 9 0 9 9 9 0 t 3 3 3 3 3 3 3 3 3 > < @ } b.h.b.v > 3 3 3 3 < q 0 y 9 0 0 y 0 y 9 ",
"3 3 3 3 3 q 0 0 9 7 m }._.}.D.{ ] ' r 4 > 1 9 t 0 9 0 0 9 0 9 4 4 3 3 3 3 3 3 3 , > = } v.p.a.c 1 3 3 3 3 3 q 0 9 9 0 t 9 9 0 9 ",
"< 3 3 3 < w 0 y 0 7 m XX[.'.[.OXq.^ ' ` , > * 2 0 9 0 0 0 9 9 0 9 < 3 3 3 3 > , > > X c ^...O 3 3 3 3 3 3 < q 0 9 0 9 y 9 y 9 9 ",
"3 3 3 3 3 q w t 0 9 b W.E.[._.}.,.( ` _ > > > 2 0 0 0 9 9 0 0 0 w < 3 < > 3 > , > 3 u V 2.} < 3 3 3 3 3 3 3 e 0 9 9 9 9 0 9 9 0 ",
"3 3 3 3 3 3 < 8 0 0 d j.M..X'..X*.F ^ G & & % 1 a 0 9 0 0 0 9 0 8 , : > > , > > % 1 ' I @ 1 3 3 3 3 3 3 3 3 q p 0 9 0 0 y 0 y 9 ",
"< 3 3 3 3 3 3 9 0 9 b j.k.L.E.}.J.Z.D.S.M M N i 2 w 0 9 9 9 9 0 w , 1 > < < < > n B [ U < 3 3 3 3 3 3 3 3 3 4 q w 0 9 9 9 9 0 9 ",
"< 3 3 3 3 3 3 t 0 9 d b.j.j.I.{.}.|.|.[./ / ' U   q p 9 0 0 0 p 8 % & * @ O O O ' ' ) Y < 3 3 3 3 3 3 3 3 3 3 < w 0 9 0 9 9 9 0 ",
"3 3 3 3 3 3 3 4 4 8 s %.$.] A.}.'.'.'.'.R.F.~ ! W i 1 2 1 2 2 1 r W E A r.K.C.C._ ~ ) P : 1 3 3 3 3 3 3 3 3 3 3 w 0 9 y 9 y t 0 ",
"3 3 3 3 3 3 3 3 3 9 p ( ( H y.}.'.'.[.[.}.!.G ( ' d & > - > > @ r ' ` L J.|.}.}.( ^ ' U @ 3 3 3 4 3 3 3 3 3 3 < w 0 0 0 0 9 0 0 ",
"3 3 3 3 3 3 3 3 3 9 s ' ` Q i.oX'.[.[.[.'.'.[.S.G ~ ` w - : 1 ( ~ ^ e.{._.{.'.'.'.R./ P & 1 > 3 3 3 3 5 3 3 3 3 3 3 4 3 9 9 y 0 ",
"3 3 3 3 3 3 3 3 3 t s ~ _ Q e.`.Q.)._._.'.'.}.H.( [ ) u 1 1 e ' ` K y.XX'.'.'.'.{._.[ P = 1 > 3 3 3 3 3 3 3 3 3 3 3 3 3 9 0 9 0 ",
"3 3 3 3 3 3 3 3 3 3 3 , k ' h 7 9 7 G ' }.}.[.'.XXe.Q ` ' ) ( ^ ( H w.|.'.[.[.[.'.'.XXV.O 3 > 8 p 3 3 3 3 3 3 3 3 3 3 3 9 0 0 0 ",
"3 3 3 3 3 3 3 3 3 3 3 < u ' h 9 0 9 T W T.T.'._.}.w.^ ` _ ` ` ,.,.:.D.}.'.[.{.'.[.'.{.B.O 1 > w 0 q 4 q 4 3 3 3 3 3 3 3 w w w 9 ",
"3 3 6 3 3 3 3 3 5 3 3 , l ' C 8 0 0 8 9 H &.OX{.OXt.F ( ^ G ` XX}.}.}.[.'.'.'.{.'.[.OXV.O 3 > 8 0 0 0 0 w 3 3 3 3 3 3 3 3 3 < 4 ",
"3 3 3 3 3 3 3 3 3 3 3 3 k B d 9 0 0 0 y ( &.S.u.S.6.;.3.3.e.u.[.'.'.'.'.'.[.'.'.'.~.D.+.@ 1 , 8 0 9 0 0 w 3 3 3 3 3 3 3 3 3 3 4 ",
"3 3 3 3 6 3 3 3 3 3 3 3 3 , 2 p 9 9 9 0 ) ) / / D 5.n.c.v.}.}.[.[.'.{.'.[.'.}.}.|._.J C : 1 > w 0 9 0 0 w < 3 3 3 3 3 3 3 3 3 3 ",
"3 3 6 3 3 3 3 3 3 3 3 3 3 3 4 4 9 0 0 0 g g f Y ( 5.j.h.g.~.'.[.'.[.'.'.'.{.e.,.q.,.) U @ 1 , 8 0 0 0 0 t w w w 4 3 3 3 3 3 3 3 ",
"3 3 3 3 3 3 3 3 3 3 3 3 3 3 3 < w 0 9 9 8 9 8 g / 5.b.c.v.'.[.[.[.'.{.}.{.|.&.K ^ ^ ' P : 1 : 9 0 0 0 0 0 0 0 p q < 3 3 3 3 3 3 ",
"3 3 3 3 3 3 3 3 3 3 3 3 3 3 3 3 w 0 9 0 0 0 8 h ' _ ] ] ] '.[.[.'..XF.[ *.&.` ( ` ( ' U & 1 > 8 0 0 9 0 t 0 9 0 4 3 3 3 3 3 3 3 ",
"3 3 3 3 3 3 3 3 3 3 3 3 3 3 3 5 w 0 9 0 0 0 9 h ' ~ ( ( ^ ~.[.[.'.}.u.G ( ( ( ` ( ( ' U : 1 > w 0 0 9 0 0 9 0 0 q 3 3 3 3 3 3 3 ",
"3 3 3 3 3 3 3 3 3 6 3 3 3 3 3 3 3 3 3 3 0 0 9 0 8 T ' ` ) '.{.|.J.Q ` ` ( ( ( ( ` ( ) Y & q p 9 0 9 0 0 0 0 0 0 t 0 4 3 3 3 3 3 ",
"3 3 3 3 3 6 3 3 3 3 3 3 3 3 3 3 3 3 3 3 0 9 9 0 8 h ! W R E.~.(.H.^ ` ( ` ( ` ( W W ! N : 8 0 t 9 9 9 y 0 0 0 0 0 0 4 3 3 3 3 5 ",
"3 3 3 3 3 3 3 3 3 3 3 6 3 3 3 3 3 3 3 3 0 0 0 0 0 2 & : @ d.h.b.s.H ~ ` ( ( ( ~ & & & 1 p t 9 0 0 0 0 9 t 0 0 9 9 0 4 < 3 3 3 3 ",
"3 3 3 3 3 3 3 3 3 3 3 3 3 3 3 3 3 3 3 3 w w w w 0 q > 1 > f.j.7.5.-.#.( ` ( ` ( 3 1 > 2 0 t 0 9 0 9 9 y 0 0 0 y 0 0 q q 3 3 3 3 ",
"3 3 3 3 3 3 3 3 3 3 3 3 3 3 6 3 3 3 3 3 3 3 < 4 a q > 1 - c.j.D ] m.5.H ( ( ( ( & & + 1 a 0 0 0 t 0 9 0 0 9 0 0 0 9 0 0 3 3 3 3 ",
"> 3 3 3 3 3 3 3 3 3 3 3 3 3 3 3 3 3 3 3 3 3 3 4 w 1 : 1 : =.4.5.7.v.9.5.#.( ` ( M M N d 2 w 0 0 0 9 0 9 9 y 0 t 9 0 0 0 3 3 3 3 ",
": > 3 3 3 3 3 3 3 3 3 3 3 3 3 3 3 3 3 3 3 3 3 3 < > > 1 > G ` n.v.h.j.b.-.^ ` ( ' ) ' Y . q p 0 0 0 9 0 9 0 0 0 y 9 9 0 3 3 3 3 ",
"> 1 1 3 3 3 3 3 3 3 4 3 3 3 3 3 3 3 3 3 3 3 3 3 3 1 > > : ! ` ] ;.v.g.v.-.^ ` ` ( ~ ` ! W d > 2 2 9 0 0 9 0 9 0 9 0 0 0 t w 3 3 ",
": > > 1 3 3 3 5 3 3 6 3 3 3 3 3 3 3 3 3 3 3 3 3 3 1 > 1 , ~ ( ^ #.v.h.v.$.Q ( ^ ( ` ( ( ' f & 1 , 9 0 9 9 0 9 0 9 0 0 9 0 9 < 3 ",
"> 1 > > 3 3 3 3 3 3 3 3 3 3 3 3 3 3 3 3 3 3 3 3 3 1 > > > ~ ' Q >.|.'.(.'._._._.( ( ` ~ ' f & 1 > 9 0 0 0 9 0 0 y 9 0 0 0 t > 1 ",
"> 1 > 1 3 3 3 3 3 3 3 3 3 3 5 3 3 3 3 3 3 5 3 3 3 3 > > : ! ~ Q >.{._.'.[.[.[.[.` ( ` ~ ' M > 1 > 9 9 9 9 0 9 9 9 9 0 0 9 t : 1 ",
": > > 1 3 3 < 3 3 3 3 3 3 3 3 3 3 3 3 3 3 3 3 3 3 3 3 1 > : 1 ' _ F y.oX[.}.}.}.~ ^ ^ ( ( ( ' w O > > : 1 0 9 0 0 0 0 0 > > : i ",
"> 1 : 1 2 e 2 3 3 3 3 3 3 3 3 3 3 6 3 3 3 3 3 3 3 3 3 > 1 1 4 ( _ Q q.R.J.J.T.J.$.$.$.#.( ~ ) V x 3 1 > 2 0 9 0 t 0 9 0 1 1 : i ",
"> 1 > q p 0 0 4 < 3 3 3 3 3 3 3 3 4 3 3 3 3 3 3 3 3 3 1 - : 2 ' ' ' ) G ^ K G ^ v.v.b.9.^ ` ^ s.n.> O > 1 p 0 9 0 0 0 0 : : + r ",
"> > - q y 9 0 w q 3 3 3 3 3 3 3 3 3 3 3 3 3 3 3 3 3 3 1 1 1 1 M M n E ' _ ` ` ` h.h.v.7.( ` ( 8.v.X.| 1 1 q 8 9 9 0 8 q d n d P ",
": 1 : 2 0 9 9 0 0 3 3 3 3 3 3 3 3 3 5 3 3 3 3 3 3 3 3 3 3 > : : : + d ' ~ ` ( ` g.h.j.5.H ^ H 7.j.v.j.@ - , q p 0 0 1 : ' ' ' ) ",
"> 1 > q 0 9 9 9 9 w w 3 3 3 3 3 3 3 3 3 6 4 3 3 3 3 3 3 3 q w > 1 : f ' ~ ( ( ( U.E.W.P.G.J.G.P.E.E.L.I M : 2 2 2 2 1 > ~ ( ~ ( ",
": 1 : q 0 9 y 0 y 0 t 3 3 3 3 3 3 3 3 3 3 3 3 3 3 3 3 3 3 0 0 > 1 : n ' ` ( ( ` {.{.{.{.}.}.}.{.{. X'.) W @ : > > : : : ~ ( ( ` ",
"> > > q 0 0 0 0 9 0 9 t t 0 q 3 3 3 3 3 3 3 3 3 3 3 3 3 3 3 4 9 8 > 4 1 U ) ~ ` '.[.'.'.'.'.'.'.'.[.'.( ~ ! M : 1 = Y ! ( ( ( ~ ",
"> 1 - 2 0 0 0 0 0 9 0 0 0 0 q 3 3 3 3 3 3 3 3 3 3 3 3 3 3 3 3 p w : > @ U ' ~ ( '.[.'.'.[.'.[.[.'.[._.^ ( ' N : 4 : W ' ( ( ( ~ ",
"- 1 : q 0 0 9 0 0 0 9 9 0 0 t 0 2 3 3 3 3 3 3 3 6 3 3 3 3 3 3 3 3 > 1 : Y ) ( ` j.c.{.{.[.[.[.'.'.}.'.( ~ ( ( ` ( ( ( ( ( ( ' W ",
": > - q 0 9 0 0 9 0 0 9 y 0 0 0 q 3 4 4 3 3 3 3 3 3 3 3 3 3 3 3 1 > > - M ! ~ ` s.k.(.(.[.'.[.'.[.!.T.( ` ` ` ( ( ( ( ( ( ~ ! I ",
"> 1 : q 0 0 0 9 9 9 0 9 9 9 0 9 0 0 0 0 3 3 3 3 3 3 3 3 3 3 3 3 3 : 1 1 : @ W ) G ] v.M.{.'.[.'.{.` G ^ ^ ^ ^ ( ( ( ( ( ' ( 8 9 ",
": 1 - q 0 9 0 0 0 y 9 9 9 0 9 0 9 9 0 9 3 3 3 3 3 3 3 3 3 3 3 3 3 2 1 > 1 : W ( ( [ 7.l.{.'.[.'.[.&.` -.-.;.#.( ` ( ~ ~ U h 9 9 ",
"> 1 : 2 0 0 0 0 0 9 9 y y 0 y 9 y 9 0 t 3 < < 5 3 3 3 3 3 3 3 3 2 a 8 : 1 - ~ ' ` ( H ,.|.'.].}.XX` ^ b.v.n.7.^ ` ~ ' ' : - 0 0 ",
"> 1 > q 0 0 0 9 9 y 0 9 9 9 0 9 0 9 9 y q w w q 3 3 3 3 3 3 3 3 4 q q q 1 , i n ~ ` ^ q.}.].}.D.w.5.7.k.h.j.5.^ _ ' M d 1 1 2 8 ",
"& : > q p 9 9 0 9 0 0 9 y 0 9 0 y 9 9 0 0 0 0 w 3 3 3 3 3 3 3 3 3 < e a 2 > : : ~ ` ^ 0.}._.|.&.S j.v.j.j.b.7.^ _ ' q @ > 1 , 2 ",
"W N & > > w 0 0 y 9 9 9 9 9 9 y 0 9 9 9 9 0 0 w < 3 3 3 3 3 3 3 3 3 4 2 > > > > ( ` ^ 0.}.].{.x.9.h.j.j.f.#.] ( ( ' r : > > > 1 ",
"' W % , * q 0 0 9 0 0 y 0 9 9 0 9 9 0 9 0 9 0 w < 3 3 3 3 3 3 3 3 3 3 3 > , , > ( ` G ,.|.]. XM.j.j.j.v.s.G ( ( ~ ' r : 1 > > > ",
"' Y % , & q p t 9 9 9 0 9 9 y 9 y 0 9 9 0 9 0 0 y t 9 4 3 3 3 3 3 3 < , > > : : ^ &.[._.{.I.k.j.j.j.h.` ` ( ` ` ~ ) q = - - - - ",
"( W , < * q 9 t 0 0 9 0 9 y 9 9 y 9 0 y 0 0 9 0 9 y 0 2 3 3 3 3 3 3 < > < > 5 5 ] >.}.].{.I.h.h.j.h.f.( ( ( ( ` ] ' k 5 4 6 6 6 ",
"( ( ' M # , * 8 0 0 0 0 0 0 9 0 0 0 9 0 0 t 0 9 9 9 0 4 3 3 3 3 3 3 > @ = o p.v.[.{.].[..XI.j.v.c._ ^ ( ( ` ( H 7.b.v.j.v.j.j.v.",
"` ~ ' P e 3 , q w 8 w 0 9 0 t 0 t 0 0 0 0 0 9 0 0 9 0 q 2 3 3 3 3 3 j c v z z.M.].'.[.(.!.x.7.9.f._ ~ ( _ ~ ] #.7.j.h.g.h.j.j.j.",
"( ( ( ( ' k # * * * , p 0 p 0 0 p 0 0 0 0 t 9 y 9 9 y 0 0 3 3 3 1 . ..n.v.j.'..X[.]..XE.j.;.G ^ Q ' ' ' ' / 4.^.b.v.b.v.j.h.j.j."
};
