/* XPM */
static char *_11ca2cdac344288c52d84531c77ac93ZGTrgY7DC2C1xQiV[] = {
/* columns rows colors chars-per-pixel */
"64 64 202 2 ",
"   c #313D3D",
".  c #323E3E",
"X  c #2C3937",
"o  c #4B555F",
"O  c #5F6778",
"+  c #5A6372",
"@  c #5D6675",
"#  c #0E1823",
"$  c #0A141F",
"%  c #07111C",
"&  c #18222C",
"*  c #434D52",
"=  c #3C464C",
"-  c #3E484D",
";  c #202B30",
":  c #212C31",
">  c #1D292D",
",  c #2F3943",
"<  c #3A4351",
"1  c #37414E",
"2  c #39424F",
"3  c #0D1722",
"4  c #09131E",
"5  c #121C26",
"6  c #2A343C",
"7  c #263038",
"8  c #273139",
"9  c #07111D",
"0  c #07101C",
"q  c #040E19",
"w  c #020C17",
"e  c #030D17",
"r  c #0B1520",
"t  c #050F1B",
"y  c #06101B",
"u  c #0B1620",
"i  c #0C1620",
"p  c #0E1824",
"a  c #0C1622",
"s  c #0C1621",
"d  c #0D1721",
"f  c #030D18",
"g  c #040E18",
"h  c #050F1A",
"j  c #08111D",
"k  c #343E4B",
"l  c #495260",
"z  c #444D5B",
"x  c #454E5C",
"c  c #444E5C",
"v  c #48515F",
"b  c #3A4451",
"n  c #09131F",
"m  c #242F33",
"M  c #273235",
"N  c #263235",
"B  c #000A15",
"V  c #424B59",
"C  c #5E6777",
"Z  c #586170",
"A  c #596271",
"S  c #4A5462",
"D  c #020C16",
"F  c #08121E",
"G  c #2C383A",
"H  c #2F3C3C",
"J  c #303C3C",
"K  c #2F3946",
"L  c #525B6A",
"P  c #555E6D",
"I  c #545D6C",
"U  c #565F6E",
"Y  c #37404E",
"T  c #232F32",
"R  c #2D393A",
"E  c #2C3839",
"W  c #303A47",
"Q  c #5B6472",
"!  c #515A68",
"~  c #525B69",
"^  c #535C6B",
"/  c #5D6575",
"(  c #0E1822",
")  c #2E3A3C",
"_  c #2F3A3C",
"`  c #222C34",
"'  c #3D474C",
"]  c #374147",
"[  c #384248",
"{  c #394348",
"}  c #364045",
"|  c #535C6A",
" . c #576070",
".. c #5B6473",
"X. c #3A4350",
"o. c #2E3840",
"O. c #3D474D",
"+. c #3A444A",
"@. c #232D36",
"#. c #3F494E",
"$. c #394349",
"%. c #4B5460",
"&. c #4E5764",
"*. c #06101C",
"=. c #2E383F",
"-. c #232D35",
";. c #3E484E",
":. c #384249",
">. c #374146",
",. c #384247",
"<. c #3B454C",
"1. c #3A444B",
"2. c #3B454B",
"3. c #1E292F",
"4. c #333F3F",
"5. c #2E3A3B",
"6. c #303C3D",
"7. c #535D6B",
"8. c #3B4451",
"9. c #2F3940",
"0. c #1B262D",
"q. c #555E6E",
"w. c #37404D",
"e. c #2C363D",
"r. c #050F1C",
"t. c #253034",
"y. c #323F3E",
"u. c #2F3B3C",
"i. c #2F3B3B",
"p. c #5D6676",
"a. c #010B16",
"s. c #283336",
"d. c #253134",
"f. c #263134",
"g. c #47505F",
"h. c #303A41",
"j. c #0C1721",
"k. c #0D1822",
"l. c #0F1924",
"z. c #202C30",
"x. c #222D32",
"c. c #0F1A23",
"v. c #08121D",
"b. c #212B37",
"n. c #3D4754",
"m. c #344040",
"M. c #101A23",
"N. c #000510",
"B. c #2D3643",
"V. c #646D7D",
"C. c #283436",
"Z. c #273336",
"A. c #1B2531",
"S. c #4B5563",
"D. c #4B5462",
"F. c #202936",
"G. c #616A79",
"H. c #343F43",
"J. c #2C3838",
"K. c #0A1420",
"L. c #17212B",
"P. c #3B444B",
"I. c #354044",
"U. c #3C454C",
"Y. c #323E41",
"T. c #2C3939",
"R. c #323D40",
"E. c #3C464D",
"W. c #333E41",
"Q. c #364145",
"!. c #303B3D",
"~. c #353F43",
"^. c #2B3737",
"/. c #18222B",
"(. c #3F494F",
"). c #39434A",
"_. c #303C3E",
"`. c #2F3B3D",
"'. c #2D3A3A",
"]. c #151F28",
"[. c #343F41",
"{. c #2D3939",
"}. c #2E393B",
"|. c #141F27",
" X c #323E3D",
".X c #313E3D",
"XX c #131E26",
"oX c #1D282D",
"OX c #2B3638",
"+X c #2A3638",
"@X c #101A24",
"#X c #19242B",
"$X c #030E18",
"%X c #050F19",
"&X c #232D39",
"*X c #2E3744",
"=X c #2B3542",
"-X c #2C3542",
";X c #2D3744",
":X c #26303C",
">X c #29333F",
",X c white",
/* pixels */
"                                            . X o O + @ # $ % & * = - - - - - - - - - - - - - - - - - - - - - - - - - - - - - - ",
"; ; ; ; ; ; ; ; ; ; ; ; ; ; ; ; ; ; ; ; ; ; : > , < 1 2 3 $ 4 5 6 7 8 8 8 8 8 8 8 8 8 8 8 8 8 8 8 8 8 8 8 8 8 8 8 8 8 8 8 8 8 8 ",
"9 9 9 9 9 9 9 9 9 9 9 9 9 9 9 9 9 9 9 9 9 9 0 9 q w e e $ r r 4 t y y y y y y y y y y y y y y y y y y y y y y y y y y y y y y y ",
"u u i r 3 3 3 3 3 3 3 3 3 3 3 3 3 3 3 3 3 3 3 3 # p p p a s s 3 # # # # # # # # # # # # # # # # # # # 3 s s s s s s s d d d d d ",
"r r $ r y f q q q q q q q q q q q q q q q q q q q q q q q q q q q q q q q q q q q q q q q q q q q q g h r $ r r r $ r j 9 9 9 9 ",
"r $ s h k l z x x x x x x x x x x x x x x x x x x x x x x x x x x x x x x x x x x x x x x x x x x c v b y s $ r $ r n m M N N N ",
"$ r s B V C Z A A A A A A A A A A A A A A A A A A A A A A A A A A A A A A A A A A A A A A A A A A Z @ S D r r $ r $ F G   H J J ",
"3 f K Z L P P P P P P P P P P P P P P P P P P P P P P P P P P P P P P P P P P P P P P P P P P P I I I L U Y f 3 9 T R E R R R R ",
"3 f W Q ! ~ ~ ~ ~ ~ ~ ~ ~ ~ ~ ~ ~ ~ ~ ~ ~ ~ ~ ~ ~ ~ ~ ~ ~ ~ ~ ~ ~ ~ ~ ~ ~ ~ ~ ~ ~ ~ ~ ~ ~ ~ ~ ~ I I I ^ / b e ( 9 N . ) _ _ _ _ ",
"s y ` ' ] [ [ [ [ [ [ [ [ [ [ [ [ [ [ [ [ [ [ [ [ [ [ [ [ [ [ [ [ [ [ [ [ [ [ [ [ [ [ [ [ [ { } |  .I ^ ..X.e # y o.O.+.+.+.+.+.",
"s y @.#.$.+.+.+.+.+.+.+.+.+.+.+.+.+.+.+.+.+.+.+.+.+.+.+.+.+.+.+.+.+.+.+.+.+.+.+.+.+.+.+.+.+.+.{ %.&.P ^ ..X.e # *.=.= $.$.$.$.$.",
"s y -.;.:.+.+.+.+.+.+.+.+.+.+.+.+.+.+.+.+.+.+.+.+.+.+.+.+.+.+.+.+.+.+.+.+.+.+.+.+.+.+.+.+.+.$.+.>.,.P ^ ..X.e # y =.' $.+.+.+.+.",
"s y -.;.:.+.+.+.+.+.+.+.+.+.+.+.+.+.+.+.+.+.+.+.+.+.+.+.+.+.+.+.+.+.+.+.+.+.+.+.+.+.+.+.+.+.+.$.+.<.P ^ ..X.e # y =.' $.+.+.+.+.",
"s y -.;.:.+.+.+.+.+.+.+.+.+.+.+.+.+.+.+.+.+.+.+.+.+.+.+.+.+.+.+.+.+.+.+.+.+.+.+.+.+.+.+.+.+.+.+.$.1.P ^ ..X.e # y =.' $.+.+.+.+.",
"s y -.;.:.+.+.+.+.+.+.+.+.+.+.+.+.+.+.+.+.+.+.+.+.+.+.+.+.+.+.+.+.+.+.+.+.+.+.+.+.+.+.+.+.+.+.+.$.1.P ^ ..X.e # y =.' $.+.+.+.+.",
"s y -.;.:.+.+.+.+.+.+.+.+.+.+.+.+.+.+.+.+.+.+.+.+.+.+.+.+.+.+.+.+.+.+.+.+.+.+.+.+.+.+.+.+.+.+.+.$.1.P ^ ..X.e # y =.' $.+.+.+.+.",
"s y -.;.:.+.+.+.+.+.+.+.+.+.+.+.+.+.+.+.+.+.+.+.+.+.+.+.+.+.+.+.+.+.+.+.+.+.+.+.+.+.+.+.+.+.+.+.$.1.P ^ ..X.e # y =.' $.+.+.+.+.",
"s y -.;.:.+.+.+.+.+.+.+.+.+.+.+.+.+.+.+.+.+.+.+.+.+.+.+.+.+.+.+.+.+.+.+.+.+.+.+.+.+.+.+.+.+.+.+.$.1.P ^ ..X.e # y =.' $.+.+.+.+.",
"s y -.;.:.+.+.+.+.+.+.+.+.+.+.+.+.+.+.+.+.+.+.+.+.+.+.+.+.+.+.+.+.+.+.+.+.+.+.+.+.+.+.+.+.+.+.+.$.1.P ^ ..X.e # y =.' $.+.+.+.+.",
"s y -.;.:.+.+.+.+.+.+.+.+.+.+.+.+.+.+.+.+.+.+.+.+.+.+.+.+.+.+.+.+.+.+.+.+.+.+.+.+.+.+.+.+.+.+.+.$.1.P ^ ..X.e # y =.' $.+.+.+.+.",
"s y -.;.:.+.+.+.+.+.+.+.+.+.+.+.+.+.+.+.+.+.+.+.+.+.+.+.+.+.+.+.+.+.+.+.+.+.+.+.+.+.+.+.+.+.+.+.$.1.P ^ ..X.e # y =.' $.+.+.+.+.",
"s y -.;.:.+.+.+.+.+.+.+.+.+.+.+.+.+.+.+.+.+.+.+.+.+.+.+.+.+.+.+.+.+.+.+.+.+.+.+.+.+.+.+.+.+.+.+.$.1.P ^ ..X.e # y =.' $.+.+.+.+.",
"s y -.;.:.+.+.+.+.+.+.+.+.+.+.+.+.+.+.+.+.+.+.+.+.+.+.+.+.+.+.+.+.+.+.+.+.+.+.+.+.+.+.+.+.+.+.+.$.1.P ^ ..X.e # y =.' $.+.+.+.+.",
"s y -.;.:.+.+.+.+.+.+.+.+.+.+.+.+.+.+.+.+.+.+.+.+.+.+.+.+.+.+.+.+.+.+.+.+.+.+.+.+.+.+.+.+.+.+.+.$.1.P ^ ..X.e # y =.' $.+.+.+.+.",
"s y -.;.:.+.+.+.+.+.+.+.+.+.+.+.+.+.+.+.+.+.+.+.+.+.+.+.+.+.+.+.+.+.+.+.+.+.+.+.+.+.+.+.+.+.+.+.$.1.P ^ ..X.e # y =.' $.+.+.+.+.",
"s y -.;.[ $.$.$.$.$.$.$.$.$.$.$.$.$.$.$.$.$.$.$.$.$.$.$.$.$.$.$.$.$.$.$.$.$.$.$.$.$.$.$.$.$.$.$.$.1.P ^ ..X.e # y =.' $.+.+.+.+.",
"s y @.#.$.+.+.+.+.+.+.+.+.+.+.+.+.+.+.+.+.+.+.+.+.+.+.+.+.+.+.+.+.+.+.+.+.+.+.+.+.+.+.+.+.+.+.+.+.2.P ^ ..X.e # y =.= $.+.+.+.+.",
"s 9 3.4.5._ _ _ _ _ _ _ _ _ _ _ _ _ _ _ _ _ _ _ _ _ _ _ _ _ _ _ _ _ _ _ _ _ _ _ _ _ _ _ _ _ _ _ 5.6.P 7.@ 8.e # y 9.- $.$.+.+.+.",
"s 9 0.5.E R R R R R R R R R R R R R R R R R R R R R R R R R R R R R R R R R R R R R R R R R R R E 5.I L q.w.f # *.e.$.:.$.$.$.$.",
"r r r r.t.y.u.J J J J J J J J J J J J J J J J J J J J J J J J J J J J J J J J J J J J J J J J J i.6.p.S a.r r $ r $ % [ - = = = ",
"r $ r F 3.s.d.f.f.f.f.f.f.f.f.f.f.f.f.f.f.f.f.f.f.f.f.f.f.f.f.f.f.f.f.f.f.f.f.f.f.f.f.f.f.f.f.f.d.N g.< y s $ r $ r 4 e.h.9.9.9.",
"$ r $ r F 9 9 9 9 9 9 9 9 9 9 9 9 9 9 9 9 9 9 9 9 9 9 9 9 9 9 9 9 9 9 9 9 9 9 9 9 9 9 9 9 9 9 9 9 9 f h r $ r r r $ r % *.*.*.*.",
"i u i r s j.s s s s s s s s s s s s s s s s s s s j.i r r r r r r s # 3 3 3 3 3 3 3 3 3 3 3 3 3 3 k.l.# a 3 3 3 3 3 3 # # # # # ",
"9 9 9 9 9 9 9 9 9 9 9 9 9 9 9 9 9 9 9 9 9 9 9 9 9 *.$ r $ r r $ r % w f e e e e e e e e e e e e e e e e e e e e e e e e e e e e ",
"z.z.z.z.z.z.z.z.z.z.z.z.z.z.z.z.z.z.z.z.z.z.z.z.; x.c.$ r r $ s v.b.n.1 2 2 2 2 2 2 2 2 2 2 2 2 2 2 2 2 2 2 2 2 2 2 2 2 2 2 2 2 ",
"                                                J m.M.t r $ r r N.B.V.A ........................................................",
"R R R R R R R R R R R R R R R R R R R R R R R R R R C.Z.s r y A.S.D.I ^ ^ ^ ^ ^ ^ ^ ^ ^ ^ ^ ^ ^ ^ ^ ^ ^ ^ ^ ^ ^ ^ ^ ^ ^ ^ ^ ^ ^ ",
"R R R R R R R R R R R R R R R R R R R R R R R 5.5.R u.6.s r h F.G.P I P P P P P P P P P P P P P P P P P P P P P P P P P P P P P ",
"$.$.$.$.$.$.$.$.$.$.$.$.$.$.$.$.$.$.$.$.$.+.H.J.5.5.R 5.s K.9 L.#.$.P.1.1.1.1.1.1.1.1.1.1.1.1.1.1.1.1.1.1.1.1.1.1.1.1.1.1.1.1.1.",
"+.+.+.+.+.+.+.+.+.+.+.+.+.+.+.+.+.+.+.+.$.P.I.5.) R R 5.s K.9 L.- [ $.$.$.$.$.$.$.$.$.$.$.$.$.$.$.$.$.$.$.$.$.$.$.$.$.$.$.$.$.$.",
"$.$.$.$.$.$.$.$.$.$.$.$.$.$.$.$.$.$.$.$.+.$.$.U.Y.T.5.5.s K.9 L.;.[ +.+.+.+.+.+.+.+.+.+.+.+.+.+.+.+.+.+.+.+.+.+.+.+.+.+.+.+.+.+.",
"+.+.+.+.+.+.+.+.+.+.+.+.+.+.+.+.+.+.+.+.$.+.$.P.R.T.5.5.s K.9 L.;.[ +.+.+.+.+.+.+.+.+.+.+.+.+.+.+.+.+.+.+.+.+.+.+.+.+.+.+.+.+.+.",
"+.+.+.+.+.+.+.+.+.+.+.+.+.+.+.+.+.+.+.+.+.+.$.2.R.T.5.5.s K.9 L.;.[ +.+.+.+.+.+.+.+.+.+.+.+.+.+.+.+.+.+.+.+.+.+.+.+.+.+.+.+.+.+.",
"+.+.+.+.+.+.+.+.+.+.+.+.+.+.+.+.+.+.+.+.+.+.$.2.R.T.5.5.s K.9 L.;.[ +.+.+.+.+.+.+.+.+.+.+.+.+.+.+.+.+.+.+.+.+.+.+.+.+.+.+.+.+.+.",
"+.+.+.+.+.+.+.+.+.+.+.+.+.+.+.+.+.+.+.+.+.+.$.2.R.T.5.5.s K.9 L.;.[ +.+.+.+.+.+.+.+.+.+.+.+.+.+.+.+.+.+.+.+.+.+.+.+.+.+.+.+.+.+.",
"+.+.+.+.+.+.+.+.+.+.+.+.+.+.+.+.+.+.+.+.+.+.$.2.R.T.5.5.s K.9 L.;.[ +.+.+.+.+.+.+.+.+.+.+.+.+.+.+.+.+.+.+.+.+.+.+.+.+.+.+.+.+.+.",
"+.+.+.+.+.+.+.+.+.+.+.+.+.+.+.+.+.+.+.+.+.+.$.2.R.T.5.5.s K.9 L.;.[ +.+.+.+.+.+.+.+.+.+.+.+.+.+.+.+.+.+.+.+.+.+.+.+.+.+.+.+.+.+.",
"+.+.+.+.+.+.+.+.+.+.+.+.+.+.+.+.+.+.+.+.+.+.$.2.R.T.5.5.s K.9 L.;.[ +.+.+.+.+.+.+.+.+.+.+.+.+.+.+.+.+.+.+.+.+.+.+.+.+.+.+.+.+.+.",
"+.+.+.+.+.+.+.+.+.+.+.+.+.+.+.+.+.+.+.+.+.+.$.2.R.T.5.5.s K.9 L.;.[ +.+.+.+.+.+.+.+.+.+.+.+.+.+.+.+.+.+.+.+.+.+.+.+.+.+.+.+.+.+.",
"+.+.+.+.+.+.+.+.+.+.+.+.+.+.+.+.+.+.+.+.+.+.$.2.R.T.5.5.s K.9 L.;.[ +.+.+.+.+.+.+.+.+.+.+.+.+.+.+.+.+.+.+.+.+.+.+.+.+.+.+.+.+.+.",
"+.+.+.+.+.+.+.+.+.+.+.+.+.+.+.+.+.+.+.+.+.+.$.2.R.T.5.5.s K.9 L.;.[ +.+.+.+.+.+.+.+.+.+.+.+.+.+.+.+.+.+.+.+.+.+.+.+.+.+.+.+.+.+.",
"+.+.+.+.+.+.+.+.+.+.+.+.+.+.+.+.+.+.+.+.+.+.$.2.R.T.5.5.s K.9 L.;.[ +.+.+.+.+.+.+.+.+.+.+.+.+.+.+.+.+.+.+.+.+.+.+.+.+.+.+.+.+.+.",
"+.+.+.+.+.+.+.+.+.+.+.+.+.+.+.+.+.+.+.+.$.+.$.1.R.T.5.5.s K.9 L.;.[ +.+.+.+.+.+.+.+.+.+.+.+.+.+.+.+.+.+.+.+.+.+.+.+.+.+.+.+.+.+.",
"+.+.+.+.+.+.+.+.+.+.+.+.+.+.+.+.+.+.+.+.+.$.+.E.W.T.5.5.s K.9 L.;.[ +.+.+.+.+.+.+.+.+.+.+.+.+.+.+.+.+.+.+.+.+.+.+.+.+.+.+.+.+.+.",
"$.$.$.$.$.$.$.$.$.$.$.$.$.$.$.$.$.$.$.$.$.+.Q.Y.!.R 5.5.s K.9 L.- [ $.$.$.$.$.$.$.$.$.$.$.$.$.$.$.$.$.$.$.$.$.$.$.$.$.$.$.$.$.$.",
"P.P.P.P.P.P.P.P.P.P.P.P.P.P.P.P.P.P.P.P.1.E.~.^.R 5.R 5.s K.% /.(.).P.P.P.P.P.P.P.P.P.P.P.P.P.P.P.P.P.P.P.P.P.P.P.P.P.P.P.P.P.P.",
"_._._._._._._._._._._._._._._._._._._._._._.`.5.5.'.R 5.s $ v.].[.`._._._._._._._._._._._._._._._._._._._._._._._._._._._._._._.",
"R R R R R R R R R R R R R R R R R R R R R {.R }.R R 5.H s $ F |. XE {.R R R R R R R R R R R R R R R R R R R R R R R R R R R R R ",
"i.i.i.i.i.i.i.i.i.i.i.i.i.i.i.i.i.i.i.i.i.i.i.5.5..XXXr r $ $ s $ oX. 5.i.i.i.i.i.i.i.i.i.i.i.i.i.i.i.i.i.i.i.i.i.i.i.i.i.i.i.i.",
"OXOXOXOXOXOXOXOXOXOXOXOXOXOXOXOXOXOXOXOXOXOXOXOX+XR @XF r r r r *.#X5.+XOXOXOXOXOXOXOXOXOXOXOXOXOXOXOXOXOXOXOXOXOXOXOXOXOXOXOXOX",
"4 4 4 4 4 4 4 4 4 4 4 4 4 4 4 4 4 4 4 4 4 4 4 4 4 4 $ r $ r $ $ r $ 4 4 4 4 4 4 4 4 4 4 4 4 4 4 4 4 4 4 4 4 4 4 4 4 4 4 4 4 4 4 ",
"r r r r s 3 s s s s s s s s s s s s s s s s s s s d s s s s s s s s d s s s s s s s s s s s s s s s 3 s r r r r r r r s 3 s s s ",
"$ r $ r h f $Xf f f f f f f f f f f f f f f f f f f f f f f f f f f f f f f f f f f f f f f f f f f f %Xr $ r r r $ r q f f f f ",
"r $ a $ &X*X=X-X-X-X-X-X-X-X-X-X-X-X-X-X-X-X-X-X-X-X-X-X-X-X-X-X-X-X-X-X-X-X-X-X-X-X-X-X-X-X-X-X-X=X;X:X$ 3 $ r $ s r >XB.-X-X-X"
};
