/* XPM */
static char *bcee73f181be4bc6adf11314c38ffbd0EwePzJniWHGWcRE3[] = {
/* columns rows colors chars-per-pixel */
"64 64 84 1 ",
"  c #010101",
". c #090707",
"X c #0A0807",
"o c #060A0A",
"O c #0A0A0A",
"+ c #0E100F",
"@ c #0D1313",
"# c #0F1718",
"$ c #111614",
"% c #121816",
"& c #101718",
"* c #141D1D",
"= c #17211E",
"- c #18221F",
"; c #151F20",
": c #162121",
"> c #1A2523",
", c #1C2A26",
"< c #1D2C28",
"1 c #1E2C28",
"2 c #1F2D29",
"3 c #1E2C2A",
"4 c #1F2F2B",
"5 c #1F302C",
"6 c #212D2A",
"7 c #212E2A",
"8 c #202F2B",
"9 c #21302C",
"0 c #22302C",
"q c #23312D",
"w c #22332F",
"e c #24322E",
"r c #23342F",
"t c #233430",
"y c #243530",
"u c #253733",
"i c #253833",
"p c #263833",
"a c #273934",
"s c #273A35",
"d c #283B36",
"f c #283B37",
"g c #2A3D39",
"h c #2B3E39",
"j c #2B403A",
"k c #2C413B",
"l c #2D423C",
"z c #2E443E",
"x c #2F453F",
"c c #2F4540",
"v c #2F4640",
"b c #2F4641",
"n c #304740",
"m c #314741",
"M c #304842",
"N c #314943",
"B c #324A44",
"V c #334B44",
"C c #334C45",
"Z c #344D47",
"A c #354E47",
"S c #354E48",
"D c #354F48",
"F c #364F49",
"G c #365049",
"H c #375049",
"J c #37514A",
"K c #37524B",
"L c #38534B",
"P c #38534C",
"I c #39534C",
"U c #39544D",
"Y c #39554E",
"T c #3B574F",
"R c #3B5750",
"E c #3B5850",
"W c #3C5850",
"Q c #3C5A52",
"! c #3D5A52",
"~ c #3D5B53",
"^ c #3D5C53",
"/ c #3F5E55",
"( c #406058",
") c #43645B",
/* pixels */
".XXX..O889888q8q91 X..XXX.XX.           .. >r88879996u+ X.XXO.  ",
" X.X..O>,>>>,>>>,-.X.. .....            X..%,,>>,>>8:8+.X. .X   ",
" .....X . .. ..  .O.X.                  X..  ... . .  ....      ",
"OO..X.XXXX..XXXXXO                      ..XOXX.XXX..O....     oO",
">$ XX.X.XOXXXXXXOO                        ...  .. . ....     O>:",
";+....X       .          O@@O@@@@O@@@O@@@@$@$$##$$$$$+$$@@@@@#::",
";+.X.X.                  =::::::::::::::>;:**>::*:>;;;;>;::::;#*",
":@...                o&##***:**:**:******:****;****;*;;******5Nz",
"*+.OX                @>::************:*:*;;*;*:**:*;;**;=***#tEJ",
"P> X.&***************#***MJCCACCAFAC;:**:**:;**::*:;*;***:JCFJJJ",
"!> X.*;;**:*::*:;;;;:::::CJJJJJJJJJJ>:>:;*:**;;:*:**;;=>:>YJJJJF",
"T8 XX&*******&******#iEKJJJJJJJAJJJJJJEj#******#*****&xYJKJJJYPJ",
"V- ..,863333,2232<23>jPCJJJJJJJJJJJJCJJv>233,33323338>mIHHHIJMdh",
"6%.X Y!PPRPYYYPPPPRYEJJJJJJJJJJJJJJJJJGJPRYYYYYPPYYPYYIJHHTR(9  ",
"%+.X.,8JFFFFFFFFDDGGJJJJJJJJJJJJJJJJJJJJGGDDFFFFFFFAAAAIHV889*.X",
" .X.O OYFFJJJFKKJJJJJJJJJJJJJJJJJJJJJJJJJJJJKJJFFYPPIFHH!H    XX",
"..   .OIHHHHJHJJJJJJJJJJJJJJJJJJJJJJJJJJJJJJJJJJBffuxYAA>%.XO   ",
".    .O!IIIHAHJJJJJJJJJJJJJJJJJJJJJJJJJJJJJJJJJYB>8>lLY!X XXX.  ",
"     X.@-TAALJJJJJJJJJJJJJJJJJJJJJJJJJJJJJJJAJJ9u998l!-OXX      ",
"     XX $TAIHAJAAJJJJJJJJJJJJJJJJJJJJJJJJJJJJJJ2688>h!$ XX      ",
"     .. %/IIf288JJJJJJJJJJJJJJJJJJJJJJJJJJJJJIJ5222r%.XX        ",
"     .X $VxTu,88CCJJJAJJJJJJJJJJJJJAAJJJJAJCCCN2258r$ .X        ",
"       XX ,)a88829LJJJJJYLJAJJJJJJJPLYJJJJYr>5195989%.          ",
"       XX *h81862rJAJJJMzvzJJJAJJJMzzzJAJJYi29228239$         oo",
"       XOXX -r882rYYIFPq>22YYJJJJE9>25JJJJEi2899228r@        +>:",
"          .X$%1825hzHAIu888hlJAJzhr95rJAIzhr25222819@     @@O#:*",
"           OX 2rr9>i!HRp299>rEJEi>9529YL!h>982599r8i@     :::;;*",
"&&&        XXXO+@$99fyp825999iuu959259iiir99822@+@@@.   &#***;*t",
">*>        XOX X X928238222522222222922218,9988 X X.    ;:;*::&j",
":*****&       ..XXOOO*882925582858952589869$XO..XX.   ##**;;#9JJ",
"*:::::*       ..XXX. %822229252599985222668$.X...X    #::*;:*iYJ",
"&fYIJ:#           XX.XXX.25992999252952988u$ O.       #;**#,EJCJ",
">kKFK3>  o         ..X.X.->>,88825259291>>8OOX.    .o *;,,>tKFJF",
"RJKJKEK;:>@           O...  Ouqq5289919= X  X     o>;:*#JYRJKKJJ",
"KJJFJKB*::#ooO         . ...O-**,985525- X.XXOOooo@::*3tFFFJJFJJ",
"JJJJJKB#*#:>:>             ...  =r2225r, O...%>>>:***@CEDFJKJJJJ",
"JJJJFKDhhj5:::#@@@           XXX+$2921@+....O#*;;*,vffBJJJJJJJFJ",
"JJJJKFFPJEd@*&*::*           XOXX 1rr2 XX....*;***t^JYKFJJJJJJKK",
"JJJJFKDKDJCvvB:*-&     .....     XOO+O   .XX.$;**&5YFFJKCJJJPz5t",
"JFJJKDKDKJKKJE>*;$      .....   .XX ..    ..O*:*;*5YFJKFJJJJYz>5",
"JJJJFJJJJJJJFJCAIv##  O....       ....      X.X*>IJJJJJJJJPM2555",
"JFJJJBCCAIFJJCJJPB>$ .....        ....     ...X$>JCJFJAJCCJz2292",
"YJJJK52>rYJJJJJJJJ(f o...                  .O.X OriEJJJJ22229825",
"MBJFJ995umNJJJAJJBf3 ....                   X ..O>5MBAFI95252938",
">jEJY9559>f!IYPP^N .X.X                        XX $2z!YY92925989",
"2ikhj92252ilhlhh8>.XX.                         .XX@%8iii52598329",
"9222229225266,88  XXX                          XXXX #*&$29295559",
"25552925222889$$X.                                 XOO=:,8522228",
"58888999826229O..                                  X. #:9t899t9t",
"9588932592882rO...           ****&*&&*#*##*.       X..XXOOXOoOOO",
"88889888852822O.X.           >::*:::::;;::>o       X...XX.....X.",
"888828992r* .X           *:*:**********;:**:***       .XOX.....O",
"829929898q* OX           &**:*:*::=*,>,:**=;*:*        ... . XXX",
"29259299qi* XX           *;**:***#*#KK!v#*#*;**               ..",
"5822252**-@ .          oo=:;::;*2t5tFFKv3tt>:::Oo            .X.",
"i99t9t2  .             @:&&*&*&#h!YYJFJKEK^2##**#             ..",
"%$%$$$$...           O*5hihiiihivKJDJJJDDDJjdhddi2982888*@    XX",
". .  X X.            *rA~YYYRYRYKJJJJJJJJJJJYPEPY!YY!R!/i5    XO",
"X.X.XX.            O,>59uAJFKFJFFJFJJDJJJDJJJJJCIAAFFJi92>  ..XX",
"XXXOXX.            +t2522AJJFJJJJKJJJJJDJJJJJJGJJJFJFYr292  .X.X",
"       ........... $9285829YJJJYh2983tYJYj295NIJJJJYh2558,.....@",
"       X...X.......+9229322FCCCKi29225JBJh292NJCCACJi2928,.X...#",
">o         X......X@i9999588222225585222229252222222298,86O. @**",
":@ .o .O   ... ... +>:=>>>>25229525928525282885259258816>>.OO@:*"
};
